<svg width="24" height="24" viewBox="0 0 24 24" fill="none" xmlns="http://www.w3.org/2000/svg">
<path d="M7.71875 3.16613C7.7125 3.17655 7.66458 3.18697 7.6125 3.18697C7.5625 3.18697 7.52083 3.1953 7.52083 3.2078C7.52083 3.21822 7.49375 3.22863 7.46042 3.22863C7.425 3.22863 7.39167 3.23697 7.38542 3.24947C7.37917 3.25988 7.35 3.2703 7.32083 3.2703C7.29375 3.2703 7.27083 3.27863 7.27083 3.29113C7.27083 3.30155 7.25208 3.31197 7.22917 3.31197C7.20625 3.31197 7.1875 3.3203 7.1875 3.3328C7.1875 3.34322 7.16875 3.35363 7.14583 3.35363C7.12292 3.35363 7.10417 3.36197 7.10417 3.37447C7.10417 3.38488 7.08542 3.3953 7.0625 3.3953C7.03958 3.3953 7.02083 3.40363 7.02083 3.41613C7.02083 3.42655 7.00417 3.43697 6.98333 3.43697C6.9625 3.43697 6.93333 3.45572 6.91667 3.47863C6.9 3.50155 6.875 3.5203 6.8625 3.5203C6.83333 3.5203 6.4375 3.90363 6.4375 3.93072C6.4375 3.93905 6.40833 3.98072 6.375 4.0203C6.34167 4.05988 6.3125 4.10572 6.3125 4.11822C6.3125 4.1328 6.30417 4.1453 6.29167 4.1453C6.28125 4.1453 6.27083 4.16405 6.27083 4.18697C6.27083 4.20988 6.2625 4.22863 6.25 4.22863C6.23958 4.22863 6.22917 4.24113 6.22917 4.25572C6.22917 4.2703 6.21042 4.30363 6.1875 4.32863C6.16458 4.35363 6.14583 4.38697 6.14583 4.40572C6.14583 4.42238 6.1375 4.43697 6.125 4.43697C6.11458 4.43697 6.10417 4.45155 6.10417 4.46822C6.10417 4.48697 6.08542 4.5203 6.0625 4.5453C6.03958 4.5703 6.02083 4.60363 6.02083 4.61822C6.02083 4.6328 6.0125 4.6453 6 4.6453C5.98958 4.6453 5.97917 4.66405 5.97917 4.68697C5.97917 4.70988 5.97083 4.72863 5.95833 4.72863C5.94792 4.72863 5.9375 4.74322 5.9375 4.75988C5.9375 4.77863 5.91875 4.81197 5.89583 4.83697C5.87292 4.86197 5.85417 4.8953 5.85417 4.90988C5.85417 4.92447 5.84583 4.93697 5.83333 4.93697C5.82292 4.93697 5.8125 4.95572 5.8125 4.97863C5.8125 5.00155 5.80417 5.0203 5.79167 5.0203C5.78125 5.0203 5.77083 5.0328 5.77083 5.04738C5.77083 5.06197 5.75208 5.0953 5.72917 5.1203C5.70625 5.1453 5.6875 5.17863 5.6875 5.19738C5.6875 5.21405 5.67917 5.22863 5.66667 5.22863C5.65625 5.22863 5.64583 5.24322 5.64583 5.25988C5.64583 5.27863 5.62708 5.31197 5.60417 5.33697C5.58125 5.36197 5.5625 5.3953 5.5625 5.40988C5.5625 5.42447 5.55417 5.43697 5.54167 5.43697C5.53125 5.43697 5.52083 5.45572 5.52083 5.47863C5.52083 5.50155 5.5125 5.5203 5.5 5.5203C5.48958 5.5203 5.47917 5.53488 5.47917 5.55155C5.47917 5.5703 5.46042 5.60363 5.4375 5.62863C5.41458 5.65363 5.39583 5.68697 5.39583 5.70155C5.39583 5.71613 5.3875 5.72863 5.375 5.72863C5.36458 5.72863 5.35417 5.74738 5.35417 5.76822C5.35417 5.79113 5.34792 5.81197 5.33958 5.81613C5.31875 5.82447 5.25208 5.93488 5.23542 5.9828C5.22917 6.00363 5.21667 6.0203 5.20625 6.0203C5.19583 6.0203 5.1875 6.03905 5.1875 6.06197C5.1875 6.08488 5.17917 6.10363 5.16667 6.10363C5.15625 6.10363 5.14583 6.11613 5.14583 6.13072C5.14583 6.1453 5.12708 6.17863 5.10417 6.20363C5.08125 6.22863 5.0625 6.26197 5.0625 6.28072C5.0625 6.29738 5.05417 6.31197 5.04167 6.31197C5.03125 6.31197 5.02083 6.32655 5.02083 6.34322C5.02083 6.36197 5.00208 6.3953 4.97917 6.4203C4.95625 6.4453 4.9375 6.47863 4.9375 6.49322C4.9375 6.5078 4.92917 6.5203 4.91667 6.5203C4.90625 6.5203 4.89583 6.53905 4.89583 6.56197C4.89583 6.58488 4.8875 6.60363 4.875 6.60363C4.86458 6.60363 4.85417 6.61822 4.85417 6.63488C4.85417 6.65363 4.83542 6.68697 4.8125 6.71197C4.78958 6.73697 4.77083 6.7703 4.77083 6.78488C4.77083 6.79947 4.7625 6.81197 4.75 6.81197C4.73958 6.81197 4.72917 6.83072 4.72917 6.85155C4.72917 6.87447 4.72292 6.8953 4.71458 6.89947C4.69375 6.9078 4.62708 7.01822 4.61042 7.06613C4.60417 7.08697 4.59167 7.10363 4.58125 7.10363C4.57083 7.10363 4.5625 7.12238 4.5625 7.1453C4.5625 7.16822 4.55417 7.18697 4.54167 7.18697C4.53125 7.18697 4.52083 7.19947 4.52083 7.21405C4.52083 7.22863 4.50208 7.26197 4.47917 7.28697C4.45625 7.31197 4.4375 7.3453 4.4375 7.36405C4.4375 7.38072 4.42917 7.3953 4.41667 7.3953C4.40625 7.3953 4.39583 7.40988 4.39583 7.42655C4.39583 7.4453 4.37708 7.47863 4.35417 7.50363C4.33125 7.52863 4.3125 7.56197 4.3125 7.57655C4.3125 7.59113 4.30417 7.60363 4.29167 7.60363C4.28125 7.60363 4.27083 7.62238 4.27083 7.6453C4.27083 7.66822 4.2625 7.68697 4.25 7.68697C4.23958 7.68697 4.22917 7.70155 4.22917 7.71822C4.22917 7.73697 4.21042 7.7703 4.1875 7.7953C4.16458 7.8203 4.14583 7.85363 4.14583 7.86822C4.14583 7.8828 4.1375 7.8953 4.125 7.8953C4.11458 7.8953 4.10417 7.91405 4.10417 7.93697C4.10417 7.95988 4.09583 7.97863 4.08333 7.97863C4.07292 7.97863 4.0625 7.99113 4.0625 8.00572C4.0625 8.0203 4.04375 8.05363 4.02083 8.07863C3.99792 8.10363 3.97917 8.13697 3.97917 8.15572C3.97917 8.17238 3.97083 8.18697 3.95833 8.18697C3.94792 8.18697 3.9375 8.20572 3.9375 8.22863C3.9375 8.25155 3.92917 8.2703 3.91667 8.2703C3.90625 8.2703 3.89583 8.2828 3.89583 8.29738C3.89583 8.31197 3.87708 8.3453 3.85417 8.3703C3.83125 8.3953 3.8125 8.42863 3.8125 8.44738C3.8125 8.46405 3.80417 8.47863 3.79167 8.47863C3.78125 8.47863 3.77083 8.49322 3.77083 8.50988C3.77083 8.52863 3.75208 8.56197 3.72917 8.58697C3.70625 8.61197 3.6875 8.6453 3.6875 8.65988C3.6875 8.67447 3.67917 8.68697 3.66667 8.68697C3.65625 8.68697 3.64583 8.70572 3.64583 8.72655C3.64583 8.74947 3.63958 8.7703 3.63125 8.77447C3.61042 8.7828 3.54375 8.89322 3.52708 8.94113C3.52083 8.96197 3.50833 8.97863 3.49792 8.97863C3.4875 8.97863 3.47917 8.99738 3.47917 9.0203C3.47917 9.04322 3.47083 9.06197 3.45833 9.06197C3.44792 9.06197 3.4375 9.07447 3.4375 9.08905C3.4375 9.10363 3.41875 9.13697 3.39583 9.16197C3.37292 9.18697 3.35417 9.2203 3.35417 9.23905C3.35417 9.25572 3.34583 9.2703 3.33333 9.2703C3.32292 9.2703 3.3125 9.28488 3.3125 9.30155C3.3125 9.3203 3.29375 9.35363 3.27083 9.37863C3.24792 9.40363 3.22917 9.43697 3.22917 9.45155C3.22917 9.46613 3.22083 9.47863 3.20833 9.47863C3.19792 9.47863 3.1875 9.49738 3.1875 9.5203C3.1875 9.54322 3.17917 9.56197 3.16667 9.56197C3.15625 9.56197 3.14583 9.57655 3.14583 9.59322C3.14583 9.61197 3.12708 9.6453 3.10417 9.6703C3.08125 9.6953 3.0625 9.72863 3.0625 9.74322C3.0625 9.7578 3.05417 9.7703 3.04167 9.7703C3.03125 9.7703 3.02083 9.78905 3.02083 9.80988C3.02083 9.8328 3.01458 9.85363 3.00625 9.8578C2.98542 9.86613 2.91875 9.97655 2.90208 10.0245C2.89583 10.0453 2.88333 10.062 2.87292 10.062C2.8625 10.062 2.85417 10.0807 2.85417 10.1036C2.85417 10.1265 2.84583 10.1453 2.83333 10.1453C2.82292 10.1453 2.8125 10.1578 2.8125 10.1724C2.8125 10.187 2.79375 10.2203 2.77083 10.2453C2.74792 10.2703 2.72917 10.3036 2.72917 10.3224C2.72917 10.339 2.72083 10.3536 2.70833 10.3536C2.69792 10.3536 2.6875 10.3682 2.6875 10.3849C2.6875 10.4036 2.66875 10.437 2.64583 10.462C2.62292 10.487 2.60417 10.5203 2.60417 10.5349C2.60417 10.5495 2.59583 10.562 2.58333 10.562C2.57292 10.562 2.5625 10.5807 2.5625 10.6036C2.5625 10.6265 2.55417 10.6453 2.54167 10.6453C2.53125 10.6453 2.52083 10.6599 2.52083 10.6765C2.52083 10.6953 2.50208 10.7286 2.47917 10.7536C2.45625 10.7786 2.4375 10.812 2.4375 10.8265C2.4375 10.8411 2.42917 10.8536 2.41667 10.8536C2.40625 10.8536 2.39583 10.8724 2.39583 10.8953C2.39583 10.9182 2.3875 10.937 2.375 10.937C2.36458 10.937 2.35417 10.9495 2.35417 10.962C2.35417 10.9766 2.33542 11.012 2.3125 11.0411C2.28958 11.0703 2.27083 11.114 2.27083 11.139C2.27083 11.1661 2.2625 11.187 2.25 11.187C2.23958 11.187 2.22917 11.2057 2.22917 11.2286C2.22917 11.2515 2.22083 11.2703 2.20833 11.2703C2.19792 11.2703 2.1875 11.2974 2.1875 11.3328C2.1875 11.3661 2.17917 11.3953 2.16667 11.3953C2.15625 11.3953 2.14583 11.4328 2.14583 11.4786C2.14583 11.5245 2.1375 11.562 2.125 11.562C2.1125 11.562 2.10417 11.6203 2.10417 11.6953C2.10417 11.7703 2.09583 11.837 2.08333 11.8432C2.07292 11.8495 2.0625 11.9245 2.0625 12.0099C2.0625 12.0953 2.07292 12.1703 2.08333 12.1765C2.09583 12.1828 2.10417 12.2495 2.10417 12.3224C2.10417 12.3953 2.11458 12.462 2.125 12.4682C2.1375 12.4745 2.14583 12.512 2.14583 12.5515C2.14583 12.5911 2.15417 12.6286 2.16667 12.6349C2.17708 12.6411 2.1875 12.6703 2.1875 12.6974C2.1875 12.7245 2.19792 12.7536 2.20833 12.7599C2.22083 12.7661 2.22917 12.7911 2.22917 12.814C2.22917 12.8349 2.23958 12.8536 2.25 12.8536C2.2625 12.8536 2.27083 12.8724 2.27083 12.8953C2.27083 12.9182 2.28125 12.937 2.29167 12.937C2.30417 12.937 2.3125 12.9557 2.3125 12.9786C2.3125 13.0015 2.32292 13.0203 2.33333 13.0203C2.34583 13.0203 2.35417 13.0391 2.35417 13.062C2.35417 13.0849 2.36458 13.1036 2.375 13.1036C2.3875 13.1036 2.39583 13.1161 2.39583 13.1307C2.39583 13.1453 2.41458 13.1786 2.4375 13.2036C2.46042 13.2286 2.47917 13.262 2.47917 13.2807C2.47917 13.2974 2.48958 13.312 2.5 13.312C2.5125 13.312 2.52083 13.3266 2.52083 13.3432C2.52083 13.362 2.53958 13.3953 2.5625 13.4203C2.58542 13.4453 2.60417 13.4786 2.60417 13.4932C2.60417 13.5078 2.61458 13.5203 2.625 13.5203C2.6375 13.5203 2.64583 13.5391 2.64583 13.562C2.64583 13.5849 2.65625 13.6036 2.66667 13.6036C2.67917 13.6036 2.6875 13.6161 2.6875 13.6307C2.6875 13.6453 2.70625 13.6786 2.72917 13.7036C2.75208 13.7286 2.77083 13.762 2.77083 13.7807C2.77083 13.7974 2.78125 13.812 2.79167 13.812C2.80417 13.812 2.8125 13.8266 2.8125 13.8432C2.8125 13.862 2.83125 13.8953 2.85417 13.9203C2.87708 13.9453 2.89583 13.9786 2.89583 13.9932C2.89583 14.0078 2.90625 14.0203 2.91667 14.0203C2.92917 14.0203 2.9375 14.0391 2.9375 14.0599C2.9375 14.0828 2.94375 14.1036 2.95417 14.1078C2.97292 14.1161 3.03958 14.2266 3.05625 14.2745C3.0625 14.2953 3.075 14.312 3.08542 14.312C3.09583 14.312 3.10417 14.3307 3.10417 14.3536C3.10417 14.3765 3.11458 14.3953 3.125 14.3953C3.1375 14.3953 3.14583 14.4078 3.14583 14.4224C3.14583 14.437 3.16458 14.4703 3.1875 14.4953C3.21042 14.5203 3.22917 14.5536 3.22917 14.5724C3.22917 14.589 3.23958 14.6036 3.25 14.6036C3.2625 14.6036 3.27083 14.6182 3.27083 14.6349C3.27083 14.6536 3.28958 14.687 3.3125 14.712C3.33542 14.737 3.35417 14.7703 3.35417 14.7849C3.35417 14.7995 3.36458 14.812 3.375 14.812C3.3875 14.812 3.39583 14.8307 3.39583 14.8536C3.39583 14.8766 3.40625 14.8953 3.41667 14.8953C3.42917 14.8953 3.4375 14.9078 3.4375 14.9224C3.4375 14.937 3.45625 14.9703 3.47917 14.9953C3.50208 15.0203 3.52083 15.0536 3.52083 15.0724C3.52083 15.089 3.53125 15.1036 3.54167 15.1036C3.55417 15.1036 3.5625 15.1224 3.5625 15.1453C3.5625 15.1682 3.57292 15.187 3.58333 15.187C3.59583 15.187 3.60417 15.1995 3.60417 15.214C3.60417 15.2286 3.62292 15.262 3.64583 15.287C3.66875 15.312 3.6875 15.3453 3.6875 15.364C3.6875 15.3807 3.69792 15.3953 3.70833 15.3953C3.72083 15.3953 3.72917 15.4099 3.72917 15.4265C3.72917 15.4453 3.74792 15.4786 3.77083 15.5036C3.79375 15.5286 3.8125 15.562 3.8125 15.5766C3.8125 15.5911 3.82292 15.6036 3.83333 15.6036C3.84583 15.6036 3.85417 15.6224 3.85417 15.6453C3.85417 15.6682 3.86458 15.687 3.875 15.687C3.8875 15.687 3.89583 15.6995 3.89583 15.714C3.89583 15.7286 3.91458 15.762 3.9375 15.787C3.96042 15.812 3.97917 15.8453 3.97917 15.864C3.97917 15.8807 3.98958 15.8953 4 15.8953C4.0125 15.8953 4.02083 15.9141 4.02083 15.937C4.02083 15.9599 4.03125 15.9786 4.04167 15.9786C4.05417 15.9786 4.0625 15.9911 4.0625 16.0057C4.0625 16.0203 4.08125 16.0536 4.10417 16.0786C4.12708 16.1036 4.14583 16.137 4.14583 16.1536C4.14583 16.1703 4.15208 16.187 4.1625 16.1911C4.18125 16.1995 4.24792 16.3099 4.26458 16.3578C4.27083 16.3786 4.28333 16.3953 4.29375 16.3953C4.30417 16.3953 4.3125 16.4141 4.3125 16.437C4.3125 16.4599 4.32292 16.4786 4.33333 16.4786C4.34583 16.4786 4.35417 16.4911 4.35417 16.5057C4.35417 16.5203 4.37292 16.5536 4.39583 16.5786C4.41875 16.6036 4.4375 16.637 4.4375 16.6557C4.4375 16.6724 4.44792 16.687 4.45833 16.687C4.47083 16.687 4.47917 16.7016 4.47917 16.7182C4.47917 16.737 4.49792 16.7703 4.52083 16.7953C4.54375 16.8203 4.5625 16.8536 4.5625 16.8682C4.5625 16.8828 4.57292 16.8953 4.58333 16.8953C4.59583 16.8953 4.60417 16.9141 4.60417 16.9349C4.60417 16.9578 4.61042 16.9786 4.62083 16.9828C4.63958 16.9911 4.70625 17.1016 4.72292 17.1495C4.72917 17.1703 4.74167 17.187 4.75208 17.187C4.7625 17.187 4.77083 17.2057 4.77083 17.2286C4.77083 17.2516 4.78125 17.2703 4.79167 17.2703C4.80417 17.2703 4.8125 17.2828 4.8125 17.2974C4.8125 17.312 4.83125 17.3453 4.85417 17.3703C4.87708 17.3953 4.89583 17.4286 4.89583 17.4474C4.89583 17.4641 4.90625 17.4786 4.91667 17.4786C4.92917 17.4786 4.9375 17.4932 4.9375 17.5099C4.9375 17.5286 4.95625 17.562 4.97917 17.587C5.00208 17.612 5.02083 17.6453 5.02083 17.6599C5.02083 17.6745 5.03125 17.687 5.04167 17.687C5.05417 17.687 5.0625 17.7057 5.0625 17.7286C5.0625 17.7516 5.07292 17.7703 5.08333 17.7703C5.09583 17.7703 5.10417 17.7828 5.10417 17.7974C5.10417 17.812 5.12292 17.8453 5.14583 17.8703C5.16875 17.8953 5.1875 17.9286 5.1875 17.9474C5.1875 17.9641 5.19792 17.9786 5.20833 17.9786C5.22083 17.9786 5.22917 17.9974 5.22917 18.0203C5.22917 18.0432 5.23958 18.062 5.25 18.062C5.2625 18.062 5.27083 18.0745 5.27083 18.0891C5.27083 18.1036 5.28958 18.137 5.3125 18.162C5.33542 18.187 5.35417 18.2203 5.35417 18.2391C5.35417 18.2557 5.36458 18.2703 5.375 18.2703C5.3875 18.2703 5.39583 18.2849 5.39583 18.3016C5.39583 18.3203 5.41458 18.3536 5.4375 18.3786C5.46042 18.4036 5.47917 18.437 5.47917 18.4516C5.47917 18.4661 5.48958 18.4786 5.5 18.4786C5.5125 18.4786 5.52083 18.4974 5.52083 18.5203C5.52083 18.5432 5.53125 18.562 5.54167 18.562C5.55417 18.562 5.5625 18.5745 5.5625 18.5891C5.5625 18.6036 5.58125 18.637 5.60417 18.662C5.62708 18.687 5.64583 18.7203 5.64583 18.7391C5.64583 18.7557 5.65625 18.7703 5.66667 18.7703C5.67917 18.7703 5.6875 18.7891 5.6875 18.812C5.6875 18.8349 5.69792 18.8536 5.70833 18.8536C5.72083 18.8536 5.72917 18.8661 5.72917 18.8807C5.72917 18.8953 5.74792 18.9286 5.77083 18.9536C5.79375 18.9786 5.8125 19.012 5.8125 19.0307C5.8125 19.0474 5.82292 19.062 5.83333 19.062C5.84583 19.062 5.85417 19.0766 5.85417 19.0932C5.85417 19.112 5.87292 19.1453 5.89583 19.1703C5.91875 19.1953 5.9375 19.2286 5.9375 19.2432C5.9375 19.2578 5.94792 19.2703 5.95833 19.2703C5.97083 19.2703 5.97917 19.2891 5.97917 19.312C5.97917 19.3349 5.98958 19.3536 6 19.3536C6.0125 19.3536 6.02083 19.3661 6.02083 19.3807C6.02083 19.3953 6.03958 19.4286 6.0625 19.4536C6.08542 19.4786 6.10417 19.512 6.10417 19.5307C6.10417 19.5474 6.11458 19.562 6.125 19.562C6.1375 19.562 6.14583 19.5766 6.14583 19.5932C6.14583 19.612 6.16458 19.6453 6.1875 19.6703C6.21042 19.6953 6.22917 19.7286 6.22917 19.7432C6.22917 19.7578 6.23958 19.7703 6.25 19.7703C6.2625 19.7703 6.27083 19.7891 6.27083 19.812C6.27083 19.8349 6.28125 19.8536 6.29167 19.8536C6.30417 19.8536 6.3125 19.8661 6.3125 19.8786C6.3125 19.8932 6.34167 19.9391 6.375 19.9786C6.40833 20.0182 6.4375 20.0599 6.4375 20.0682C6.4375 20.0953 6.83333 20.4786 6.8625 20.4786C6.875 20.4786 6.9 20.4974 6.91667 20.5203C6.93333 20.5432 6.9625 20.562 6.98333 20.562C7.00417 20.562 7.02083 20.5703 7.02083 20.5828C7.02083 20.5932 7.03958 20.6036 7.0625 20.6036C7.08542 20.6036 7.10417 20.612 7.10417 20.6245C7.10417 20.6349 7.12292 20.6453 7.14583 20.6453C7.16875 20.6453 7.1875 20.6536 7.1875 20.6661C7.1875 20.6766 7.20625 20.687 7.22917 20.687C7.25208 20.687 7.27083 20.6953 7.27083 20.7078C7.27083 20.7182 7.29375 20.7286 7.32083 20.7286C7.35 20.7286 7.37917 20.737 7.38542 20.7495C7.39167 20.7599 7.425 20.7703 7.46042 20.7703C7.49375 20.7703 7.52083 20.7786 7.52083 20.7911C7.52083 20.8016 7.5625 20.812 7.6125 20.812C7.66458 20.812 7.7125 20.8224 7.71875 20.8328C7.7375 20.862 16.2625 20.862 16.2813 20.8328C16.2875 20.8203 16.3354 20.812 16.3875 20.812C16.4375 20.812 16.4792 20.8016 16.4792 20.7911C16.4792 20.7786 16.5063 20.7703 16.5396 20.7703C16.575 20.7703 16.6083 20.7599 16.6146 20.7495C16.6208 20.737 16.65 20.7286 16.6792 20.7286C16.7063 20.7286 16.7292 20.7182 16.7292 20.7078C16.7292 20.6953 16.7479 20.687 16.7708 20.687C16.7938 20.687 16.8125 20.6766 16.8125 20.6661C16.8125 20.6536 16.8313 20.6453 16.8542 20.6453C16.8771 20.6453 16.8958 20.6349 16.8958 20.6245C16.8958 20.612 16.9146 20.6036 16.9375 20.6036C16.9604 20.6036 16.9792 20.5932 16.9792 20.5828C16.9792 20.5703 16.9958 20.562 17.0167 20.562C17.0375 20.562 17.0667 20.5432 17.0833 20.5203C17.1 20.4974 17.125 20.4786 17.1396 20.4786C17.1708 20.4786 17.6042 20.0495 17.6042 20.0182C17.6042 20.0078 17.6229 19.9786 17.6458 19.9536C17.6688 19.9286 17.6875 19.8953 17.6875 19.8807C17.6875 19.8661 17.6979 19.8536 17.7083 19.8536C17.7208 19.8536 17.7292 19.8349 17.7292 19.812C17.7292 19.7891 17.7396 19.7703 17.75 19.7703C17.7625 19.7703 17.7708 19.7578 17.7708 19.7432C17.7708 19.7286 17.7896 19.6953 17.8125 19.6703C17.8354 19.6453 17.8542 19.612 17.8542 19.5932C17.8542 19.5766 17.8646 19.562 17.875 19.562C17.8875 19.562 17.8958 19.5474 17.8958 19.5307C17.8958 19.512 17.9146 19.4786 17.9375 19.4536C17.9604 19.4286 17.9792 19.3953 17.9792 19.3807C17.9792 19.3661 17.9896 19.3536 18 19.3536C18.0125 19.3536 18.0208 19.3349 18.0208 19.312C18.0208 19.2891 18.0313 19.2703 18.0417 19.2703C18.0542 19.2703 18.0625 19.2557 18.0625 19.2391C18.0625 19.2203 18.0813 19.187 18.1042 19.162C18.1271 19.137 18.1458 19.1036 18.1458 19.0891C18.1458 19.0745 18.1562 19.062 18.1667 19.062C18.1792 19.062 18.1875 19.0432 18.1875 19.0203C18.1875 18.9974 18.1979 18.9786 18.2083 18.9786C18.2208 18.9786 18.2292 18.9661 18.2292 18.9516C18.2292 18.937 18.2479 18.9036 18.2708 18.8786C18.2938 18.8536 18.3125 18.8203 18.3125 18.8016C18.3125 18.7849 18.3229 18.7703 18.3333 18.7703C18.3458 18.7703 18.3542 18.7557 18.3542 18.7391C18.3542 18.7203 18.3729 18.687 18.3958 18.662C18.4188 18.637 18.4375 18.6036 18.4375 18.5891C18.4375 18.5745 18.4479 18.562 18.4583 18.562C18.4708 18.562 18.4792 18.5432 18.4792 18.5203C18.4792 18.4974 18.4896 18.4786 18.5 18.4786C18.5125 18.4786 18.5208 18.4641 18.5208 18.4474C18.5208 18.4286 18.5396 18.3953 18.5625 18.3703C18.5854 18.3453 18.6042 18.312 18.6042 18.2974C18.6042 18.2828 18.6146 18.2703 18.625 18.2703C18.6375 18.2703 18.6458 18.2516 18.6458 18.2307C18.6458 18.2078 18.6521 18.187 18.6625 18.1828C18.6813 18.1745 18.7479 18.0641 18.7646 18.0141C18.7708 17.9953 18.7833 17.9786 18.7938 17.9786C18.8042 17.9786 18.8125 17.9599 18.8125 17.937C18.8125 17.9141 18.8229 17.8953 18.8333 17.8953C18.8458 17.8953 18.8542 17.8828 18.8542 17.8682C18.8542 17.8536 18.8729 17.8203 18.8958 17.7953C18.9188 17.7703 18.9375 17.737 18.9375 17.7182C18.9375 17.7016 18.9479 17.687 18.9583 17.687C18.9708 17.687 18.9792 17.6724 18.9792 17.6557C18.9792 17.637 18.9979 17.6036 19.0208 17.5786C19.0438 17.5536 19.0625 17.5203 19.0625 17.5057C19.0625 17.4911 19.0729 17.4786 19.0833 17.4786C19.0958 17.4786 19.1042 17.4599 19.1042 17.437C19.1042 17.4141 19.1146 17.3953 19.125 17.3953C19.1375 17.3953 19.1458 17.3807 19.1458 17.3641C19.1458 17.3453 19.1646 17.312 19.1875 17.287C19.2104 17.262 19.2292 17.2286 19.2292 17.2141C19.2292 17.1995 19.2396 17.187 19.25 17.187C19.2625 17.187 19.2708 17.1682 19.2708 17.1474C19.2708 17.1245 19.2771 17.1036 19.2875 17.0995C19.3063 17.0911 19.3729 16.9807 19.3896 16.9307C19.3958 16.912 19.4083 16.8953 19.4188 16.8953C19.4292 16.8953 19.4375 16.8766 19.4375 16.8536C19.4375 16.8307 19.4479 16.812 19.4583 16.812C19.4708 16.812 19.4792 16.7995 19.4792 16.7849C19.4792 16.7703 19.4979 16.737 19.5208 16.712C19.5438 16.687 19.5625 16.6536 19.5625 16.6349C19.5625 16.6182 19.5729 16.6036 19.5833 16.6036C19.5958 16.6036 19.6042 16.5891 19.6042 16.5724C19.6042 16.5536 19.6229 16.5203 19.6458 16.4953C19.6688 16.4703 19.6875 16.437 19.6875 16.4224C19.6875 16.4078 19.6979 16.3953 19.7083 16.3953C19.7208 16.3953 19.7292 16.3766 19.7292 16.3536C19.7292 16.3307 19.7396 16.312 19.75 16.312C19.7625 16.312 19.7708 16.2974 19.7708 16.2807C19.7708 16.262 19.7896 16.2286 19.8125 16.2036C19.8354 16.1786 19.8542 16.1453 19.8542 16.1307C19.8542 16.1161 19.8646 16.1036 19.875 16.1036C19.8875 16.1036 19.8958 16.0849 19.8958 16.062C19.8958 16.0391 19.9062 16.0203 19.9167 16.0203C19.9292 16.0203 19.9375 16.0078 19.9375 15.9932C19.9375 15.9786 19.9563 15.9453 19.9792 15.9203C20.0021 15.8953 20.0208 15.862 20.0208 15.8432C20.0208 15.8266 20.0312 15.812 20.0417 15.812C20.0542 15.812 20.0625 15.7974 20.0625 15.7807C20.0625 15.762 20.0813 15.7286 20.1042 15.7036C20.1271 15.6786 20.1458 15.6453 20.1458 15.6307C20.1458 15.6161 20.1562 15.6036 20.1667 15.6036C20.1792 15.6036 20.1875 15.5849 20.1875 15.562C20.1875 15.5391 20.1979 15.5203 20.2083 15.5203C20.2208 15.5203 20.2292 15.5057 20.2292 15.489C20.2292 15.4703 20.2479 15.437 20.2708 15.412C20.2938 15.387 20.3125 15.3536 20.3125 15.339C20.3125 15.3245 20.3229 15.312 20.3333 15.312C20.3458 15.312 20.3542 15.2932 20.3542 15.2724C20.3542 15.2495 20.3604 15.2286 20.3708 15.2245C20.3896 15.2161 20.4563 15.1057 20.4729 15.0557C20.4792 15.037 20.4917 15.0203 20.5021 15.0203C20.5125 15.0203 20.5208 15.0016 20.5208 14.9786C20.5208 14.9557 20.5313 14.937 20.5417 14.937C20.5542 14.937 20.5625 14.9245 20.5625 14.9099C20.5625 14.8953 20.5813 14.862 20.6042 14.837C20.6271 14.812 20.6458 14.7786 20.6458 14.7599C20.6458 14.7432 20.6563 14.7286 20.6667 14.7286C20.6792 14.7286 20.6875 14.714 20.6875 14.6974C20.6875 14.6786 20.7063 14.6453 20.7292 14.6203C20.7521 14.5953 20.7708 14.562 20.7708 14.5474C20.7708 14.5328 20.7813 14.5203 20.7917 14.5203C20.8042 14.5203 20.8125 14.5016 20.8125 14.4786C20.8125 14.4557 20.8229 14.437 20.8333 14.437C20.8458 14.437 20.8542 14.4224 20.8542 14.4057C20.8542 14.387 20.8729 14.3536 20.8958 14.3286C20.9188 14.3036 20.9375 14.2703 20.9375 14.2557C20.9375 14.2411 20.9479 14.2286 20.9583 14.2286C20.9708 14.2286 20.9792 14.2099 20.9792 14.189C20.9792 14.1661 20.9854 14.1453 20.9958 14.1411C21.0146 14.1328 21.0813 14.0224 21.0979 13.9724C21.1042 13.9536 21.1167 13.937 21.1271 13.937C21.1375 13.937 21.1458 13.9182 21.1458 13.8953C21.1458 13.8724 21.1563 13.8536 21.1667 13.8536C21.1792 13.8536 21.1875 13.8411 21.1875 13.8266C21.1875 13.812 21.2063 13.7786 21.2292 13.7536C21.2521 13.7286 21.2708 13.6953 21.2708 13.6765C21.2708 13.6599 21.2813 13.6453 21.2917 13.6453C21.3042 13.6453 21.3125 13.6307 21.3125 13.614C21.3125 13.5953 21.3313 13.562 21.3542 13.537C21.3771 13.512 21.3958 13.4786 21.3958 13.464C21.3958 13.4495 21.4063 13.437 21.4167 13.437C21.4292 13.437 21.4375 13.4182 21.4375 13.3953C21.4375 13.3724 21.4479 13.3536 21.4583 13.3536C21.4708 13.3536 21.4792 13.339 21.4792 13.3224C21.4792 13.3036 21.4979 13.2703 21.5208 13.2453C21.5438 13.2203 21.5625 13.187 21.5625 13.1724C21.5625 13.1578 21.5729 13.1453 21.5833 13.1453C21.5958 13.1453 21.6042 13.1265 21.6042 13.1057C21.6042 13.0828 21.6104 13.062 21.6208 13.0578C21.6417 13.0495 21.7292 12.8765 21.7292 12.8411C21.7292 12.8245 21.7396 12.812 21.75 12.812C21.7625 12.812 21.7708 12.7932 21.7708 12.7703C21.7708 12.7474 21.7813 12.7286 21.7917 12.7286C21.8042 12.7286 21.8125 12.6995 21.8125 12.6661C21.8125 12.6307 21.8229 12.6036 21.8333 12.6036C21.8458 12.6036 21.8542 12.5661 21.8542 12.5203C21.8542 12.4745 21.8646 12.437 21.875 12.437C21.8875 12.437 21.8958 12.3745 21.8958 12.2911C21.8958 12.2078 21.9042 12.1453 21.9167 12.1453C21.9292 12.1453 21.9375 12.0807 21.9375 11.9911C21.9375 11.9057 21.9292 11.8286 21.9167 11.8224C21.9063 11.8161 21.8958 11.7495 21.8958 11.6765C21.8958 11.6036 21.8875 11.537 21.875 11.5307C21.8646 11.5245 21.8542 11.487 21.8542 11.4474C21.8542 11.4078 21.8458 11.3703 21.8333 11.364C21.8229 11.3578 21.8125 11.3286 21.8125 11.3015C21.8125 11.2745 21.8042 11.2453 21.7917 11.239C21.7813 11.2328 21.7708 11.2078 21.7708 11.1849C21.7708 11.1641 21.7625 11.1453 21.75 11.1453C21.7396 11.1453 21.7292 11.1265 21.7292 11.1036C21.7292 11.0807 21.7208 11.062 21.7083 11.062C21.6979 11.062 21.6875 11.0432 21.6875 11.0203C21.6875 10.9974 21.6792 10.9786 21.6667 10.9786C21.6563 10.9786 21.6458 10.9599 21.6458 10.937C21.6458 10.9141 21.6375 10.8953 21.625 10.8953C21.6146 10.8953 21.6042 10.8828 21.6042 10.8682C21.6042 10.8536 21.5854 10.8203 21.5625 10.7953C21.5396 10.7703 21.5208 10.737 21.5208 10.7182C21.5208 10.7015 21.5125 10.687 21.5 10.687C21.4896 10.687 21.4792 10.6724 21.4792 10.6557C21.4792 10.637 21.4604 10.6036 21.4375 10.5786C21.4146 10.5536 21.3958 10.5203 21.3958 10.5057C21.3958 10.4911 21.3875 10.4786 21.375 10.4786C21.3646 10.4786 21.3542 10.4599 21.3542 10.437C21.3542 10.4141 21.3458 10.3953 21.3333 10.3953C21.3229 10.3953 21.3125 10.3828 21.3125 10.3682C21.3125 10.3536 21.2938 10.3203 21.2708 10.2953C21.2479 10.2703 21.2292 10.237 21.2292 10.2182C21.2292 10.2015 21.2208 10.187 21.2083 10.187C21.1979 10.187 21.1875 10.1724 21.1875 10.1557C21.1875 10.137 21.1688 10.1036 21.1458 10.0786C21.1229 10.0536 21.1042 10.0203 21.1042 10.0057C21.1042 9.99113 21.0958 9.97863 21.0833 9.97863C21.0729 9.97863 21.0625 9.95988 21.0625 9.93905C21.0625 9.91613 21.0563 9.8953 21.0479 9.89113C21.0271 9.8828 20.9604 9.77238 20.9438 9.72238C20.9375 9.70363 20.925 9.68697 20.9146 9.68697C20.9042 9.68697 20.8958 9.66822 20.8958 9.6453C20.8958 9.62238 20.8875 9.60363 20.875 9.60363C20.8646 9.60363 20.8542 9.59113 20.8542 9.57655C20.8542 9.56197 20.8354 9.52863 20.8125 9.50363C20.7896 9.47863 20.7708 9.4453 20.7708 9.42655C20.7708 9.40988 20.7625 9.3953 20.75 9.3953C20.7396 9.3953 20.7292 9.38072 20.7292 9.36405C20.7292 9.3453 20.7104 9.31197 20.6875 9.28697C20.6646 9.26197 20.6458 9.22863 20.6458 9.21405C20.6458 9.19947 20.6375 9.18697 20.625 9.18697C20.6146 9.18697 20.6042 9.16822 20.6042 9.1453C20.6042 9.12238 20.5958 9.10363 20.5833 9.10363C20.5729 9.10363 20.5625 9.09113 20.5625 9.07655C20.5625 9.06197 20.5438 9.02863 20.5208 9.00363C20.4979 8.97863 20.4792 8.9453 20.4792 8.92655C20.4792 8.90988 20.4708 8.8953 20.4583 8.8953C20.4479 8.8953 20.4375 8.87655 20.4375 8.85363C20.4375 8.83072 20.4292 8.81197 20.4167 8.81197C20.4063 8.81197 20.3958 8.79947 20.3958 8.78488C20.3958 8.7703 20.3771 8.73697 20.3542 8.71197C20.3313 8.68697 20.3125 8.65363 20.3125 8.63488C20.3125 8.61822 20.3042 8.60363 20.2917 8.60363C20.2812 8.60363 20.2708 8.58905 20.2708 8.57238C20.2708 8.55363 20.2521 8.5203 20.2292 8.4953C20.2063 8.4703 20.1875 8.43697 20.1875 8.42238C20.1875 8.4078 20.1792 8.3953 20.1667 8.3953C20.1562 8.3953 20.1458 8.37655 20.1458 8.35363C20.1458 8.33072 20.1375 8.31197 20.125 8.31197C20.1146 8.31197 20.1042 8.29947 20.1042 8.28488C20.1042 8.2703 20.0854 8.23697 20.0625 8.21197C20.0396 8.18697 20.0208 8.15363 20.0208 8.13488C20.0208 8.11822 20.0125 8.10363 20 8.10363C19.9896 8.10363 19.9792 8.08488 19.9792 8.06197C19.9792 8.03905 19.9708 8.0203 19.9583 8.0203C19.9479 8.0203 19.9375 8.0078 19.9375 7.99322C19.9375 7.97863 19.9188 7.9453 19.8958 7.9203C19.8729 7.8953 19.8542 7.86197 19.8542 7.84322C19.8542 7.82655 19.8458 7.81197 19.8333 7.81197C19.8229 7.81197 19.8125 7.79738 19.8125 7.78072C19.8125 7.76197 19.7938 7.72863 19.7708 7.70363C19.7479 7.67863 19.7292 7.6453 19.7292 7.63072C19.7292 7.61613 19.7208 7.60363 19.7083 7.60363C19.6979 7.60363 19.6875 7.58488 19.6875 7.56197C19.6875 7.53905 19.6792 7.5203 19.6667 7.5203C19.6562 7.5203 19.6458 7.5078 19.6458 7.49322C19.6458 7.47863 19.6271 7.4453 19.6042 7.4203C19.5813 7.3953 19.5625 7.36197 19.5625 7.34322C19.5625 7.32655 19.5542 7.31197 19.5417 7.31197C19.5312 7.31197 19.5208 7.29322 19.5208 7.2703C19.5208 7.24738 19.5125 7.22863 19.5 7.22863C19.4896 7.22863 19.4792 7.21613 19.4792 7.20155C19.4792 7.18697 19.4604 7.15363 19.4375 7.12863C19.4146 7.10363 19.3958 7.0703 19.3958 7.05363C19.3958 7.03697 19.3896 7.0203 19.3813 7.01613C19.3604 7.0078 19.2938 6.89738 19.2771 6.84738C19.2708 6.82863 19.2583 6.81197 19.2479 6.81197C19.2375 6.81197 19.2292 6.79322 19.2292 6.7703C19.2292 6.74738 19.2208 6.72863 19.2083 6.72863C19.1979 6.72863 19.1875 6.71613 19.1875 6.70155C19.1875 6.68697 19.1688 6.65363 19.1458 6.62863C19.1229 6.60363 19.1042 6.5703 19.1042 6.55155C19.1042 6.53488 19.0958 6.5203 19.0833 6.5203C19.0729 6.5203 19.0625 6.50572 19.0625 6.48905C19.0625 6.4703 19.0438 6.43697 19.0208 6.41197C18.9979 6.38697 18.9792 6.35363 18.9792 6.33905C18.9792 6.32447 18.9708 6.31197 18.9583 6.31197C18.9479 6.31197 18.9375 6.29322 18.9375 6.27238C18.9375 6.24947 18.9313 6.22863 18.9229 6.22447C18.9021 6.21613 18.8354 6.10572 18.8188 6.05572C18.8125 6.03697 18.8 6.0203 18.7896 6.0203C18.7792 6.0203 18.7708 6.00155 18.7708 5.97863C18.7708 5.95572 18.7625 5.93697 18.75 5.93697C18.7396 5.93697 18.7292 5.92447 18.7292 5.90988C18.7292 5.8953 18.7104 5.86197 18.6875 5.83697C18.6646 5.81197 18.6458 5.77863 18.6458 5.75988C18.6458 5.74322 18.6375 5.72863 18.625 5.72863C18.6146 5.72863 18.6042 5.71405 18.6042 5.69738C18.6042 5.67863 18.5854 5.6453 18.5625 5.6203C18.5396 5.5953 18.5208 5.56197 18.5208 5.54738C18.5208 5.5328 18.5125 5.5203 18.5 5.5203C18.4896 5.5203 18.4792 5.50155 18.4792 5.47863C18.4792 5.45572 18.4708 5.43697 18.4583 5.43697C18.4479 5.43697 18.4375 5.42447 18.4375 5.40988C18.4375 5.3953 18.4188 5.36197 18.3958 5.33697C18.3729 5.31197 18.3542 5.27863 18.3542 5.25988C18.3542 5.24322 18.3458 5.22863 18.3333 5.22863C18.3229 5.22863 18.3125 5.20988 18.3125 5.18697C18.3125 5.16405 18.3042 5.1453 18.2917 5.1453C18.2812 5.1453 18.2708 5.1328 18.2708 5.11822C18.2708 5.10363 18.2521 5.0703 18.2292 5.0453C18.2063 5.0203 18.1875 4.98697 18.1875 4.96822C18.1875 4.95155 18.1792 4.93697 18.1667 4.93697C18.1562 4.93697 18.1458 4.92238 18.1458 4.90572C18.1458 4.88697 18.1271 4.85363 18.1042 4.82863C18.0813 4.80363 18.0625 4.7703 18.0625 4.75572C18.0625 4.74113 18.0542 4.72863 18.0417 4.72863C18.0313 4.72863 18.0208 4.70988 18.0208 4.68697C18.0208 4.66405 18.0125 4.6453 18 4.6453C17.9896 4.6453 17.9792 4.6328 17.9792 4.61822C17.9792 4.60363 17.9604 4.5703 17.9375 4.5453C17.9146 4.5203 17.8958 4.48697 17.8958 4.46822C17.8958 4.45155 17.8875 4.43697 17.875 4.43697C17.8646 4.43697 17.8542 4.41822 17.8542 4.3953C17.8542 4.37238 17.8458 4.35363 17.8333 4.35363C17.8229 4.35363 17.8125 4.34113 17.8125 4.32655C17.8125 4.31197 17.7938 4.27863 17.7708 4.25363C17.7479 4.22863 17.7292 4.1953 17.7292 4.17655C17.7292 4.15988 17.7208 4.1453 17.7083 4.1453C17.6979 4.1453 17.6875 4.1328 17.6875 4.11822C17.6875 4.10363 17.6688 4.0703 17.6458 4.0453C17.6229 4.0203 17.6042 3.99113 17.6042 3.98072C17.6042 3.94947 17.1708 3.5203 17.1396 3.5203C17.125 3.5203 17.1 3.50155 17.0833 3.47863C17.0667 3.45572 17.0375 3.43697 17.0167 3.43697C16.9958 3.43697 16.9792 3.42655 16.9792 3.41613C16.9792 3.40363 16.9604 3.3953 16.9375 3.3953C16.9146 3.3953 16.8958 3.38488 16.8958 3.37447C16.8958 3.36197 16.8771 3.35363 16.8542 3.35363C16.8313 3.35363 16.8125 3.34322 16.8125 3.3328C16.8125 3.3203 16.7938 3.31197 16.7708 3.31197C16.7479 3.31197 16.7292 3.30155 16.7292 3.29113C16.7292 3.27863 16.7063 3.2703 16.6792 3.2703C16.65 3.2703 16.6208 3.25988 16.6146 3.24947C16.6083 3.23697 16.575 3.22863 16.5396 3.22863C16.5063 3.22863 16.4792 3.21822 16.4792 3.2078C16.4792 3.1953 16.4375 3.18697 16.3875 3.18697C16.3354 3.18697 16.2875 3.17655 16.2813 3.16613C16.2729 3.15155 14.8229 3.1453 12 3.1453C9.17708 3.1453 7.72708 3.15155 7.71875 3.16613ZM12.2729 8.72863C12.4 8.72863 12.5042 8.73697 12.5104 8.74947C12.5167 8.75988 12.5646 8.7703 12.6146 8.7703C12.6646 8.7703 12.7125 8.77863 12.7188 8.79113C12.725 8.80155 12.7625 8.81197 12.8021 8.81197C12.8417 8.81197 12.8792 8.8203 12.8854 8.8328C12.8917 8.84322 12.925 8.85363 12.9604 8.85363C12.9938 8.85363 13.0208 8.86197 13.0208 8.87447C13.0208 8.88488 13.05 8.8953 13.0833 8.8953C13.1188 8.8953 13.1458 8.90363 13.1458 8.91613C13.1458 8.92655 13.1646 8.93697 13.1875 8.93697C13.2104 8.93697 13.2292 8.9453 13.2292 8.9578C13.2292 8.96822 13.2521 8.97863 13.2792 8.97863C13.3083 8.97863 13.3375 8.98697 13.3438 8.99947C13.35 9.00988 13.375 9.0203 13.3979 9.0203C13.4188 9.0203 13.4375 9.02863 13.4375 9.04113C13.4375 9.05155 13.4563 9.06197 13.4792 9.06197C13.5021 9.06197 13.5208 9.0703 13.5208 9.0828C13.5208 9.09322 13.5333 9.10363 13.5479 9.10363C13.5625 9.10363 13.5958 9.12238 13.6208 9.1453C13.6458 9.16822 13.675 9.18697 13.6875 9.18697C13.7 9.18697 13.7292 9.20572 13.7542 9.22863C13.7792 9.25155 13.8125 9.2703 13.8271 9.2703C13.8417 9.2703 13.8542 9.27863 13.8542 9.28697C13.8542 9.29738 13.8792 9.31822 13.9104 9.33488C13.9417 9.35155 14.0042 9.39947 14.0479 9.44113C14.0938 9.48488 14.1375 9.5203 14.1479 9.5203C14.1729 9.5203 14.4792 9.82655 14.4792 9.85155C14.4792 9.86197 14.5167 9.9078 14.5625 9.95572C14.6083 10.0015 14.6458 10.0495 14.6458 10.0578C14.6458 10.0682 14.6625 10.0932 14.6833 10.1161C14.7021 10.137 14.7313 10.1807 14.7479 10.212C14.7646 10.2453 14.7854 10.2703 14.7958 10.2703C14.8042 10.2703 14.8125 10.2891 14.8125 10.312C14.8125 10.3349 14.8208 10.3536 14.8313 10.3536C14.8417 10.3536 14.8542 10.3703 14.8604 10.389C14.8771 10.439 14.9438 10.5495 14.9646 10.5578C14.9729 10.562 14.9792 10.5828 14.9792 10.6036C14.9792 10.6245 14.9896 10.6495 15 10.6557C15.0125 10.662 15.0208 10.6911 15.0208 10.7203C15.0208 10.7474 15.0313 10.7703 15.0417 10.7703C15.0542 10.7703 15.0625 10.7891 15.0625 10.812C15.0625 10.8349 15.0729 10.8536 15.0833 10.8536C15.0958 10.8536 15.1042 10.8807 15.1042 10.9161C15.1042 10.9495 15.1146 10.9786 15.125 10.9786C15.1375 10.9786 15.1458 11.0057 15.1458 11.0391C15.1458 11.0745 15.1563 11.1078 15.1667 11.114C15.1792 11.1203 15.1875 11.1578 15.1875 11.1974C15.1875 11.237 15.1979 11.2745 15.2083 11.2807C15.2208 11.287 15.2292 11.3328 15.2292 11.3828C15.2292 11.4307 15.2396 11.4807 15.25 11.4911C15.2792 11.5203 15.2792 12.4578 15.25 12.487C15.2396 12.4974 15.2292 12.5515 15.2292 12.6057C15.2292 12.6599 15.2208 12.712 15.2083 12.7182C15.1979 12.7245 15.1875 12.7578 15.1875 12.7911C15.1875 12.8245 15.1792 12.8578 15.1667 12.864C15.1563 12.8703 15.1458 12.9099 15.1458 12.9495C15.1458 12.989 15.1375 13.0203 15.125 13.0203C15.1146 13.0203 15.1042 13.0432 15.1042 13.0703C15.1042 13.0995 15.0958 13.1286 15.0833 13.1349C15.0729 13.1411 15.0625 13.1661 15.0625 13.189C15.0625 13.2099 15.0542 13.2286 15.0417 13.2286C15.0313 13.2286 15.0208 13.2432 15.0208 13.2599C15.0208 13.2765 15.0125 13.3078 15.0021 13.3286C14.9917 13.3474 14.9625 13.4057 14.9375 13.4578C14.9104 13.5099 14.8792 13.5724 14.8667 13.5974C14.8542 13.6245 14.8375 13.6453 14.8292 13.6453C14.8188 13.6453 14.8125 13.6641 14.8125 13.687C14.8125 13.7099 14.8042 13.7286 14.7958 13.7286C14.7854 13.7286 14.7646 13.7536 14.7479 13.7849C14.7313 13.8182 14.7021 13.8578 14.6833 13.8765C14.6625 13.8953 14.6458 13.9224 14.6458 13.937C14.6458 13.9495 14.6188 13.987 14.5875 14.0161C14.5563 14.0474 14.5063 14.1057 14.4792 14.1453C14.4125 14.239 14.2396 14.412 14.1458 14.4786C14.1063 14.5057 14.0479 14.5557 14.0167 14.587C13.9875 14.6182 13.9542 14.6453 13.9438 14.6453C13.9333 14.6453 13.9063 14.662 13.8833 14.6807C13.8625 14.7016 13.8188 14.7307 13.7875 14.7474C13.7542 14.7641 13.7292 14.7849 13.7292 14.7953C13.7292 14.8036 13.7104 14.812 13.6875 14.812C13.6646 14.812 13.6458 14.8182 13.6458 14.8266C13.6458 14.837 13.625 14.8536 13.5979 14.8661C13.5729 14.8786 13.5104 14.9099 13.4583 14.937C13.4063 14.962 13.3479 14.9911 13.3292 15.0016C13.3083 15.012 13.2771 15.0203 13.2604 15.0203C13.2438 15.0203 13.2292 15.0286 13.2292 15.0411C13.2292 15.0515 13.2104 15.062 13.1896 15.062C13.1667 15.062 13.1417 15.0703 13.1354 15.0828C13.1292 15.0932 13.1 15.1036 13.0708 15.1036C13.0438 15.1036 13.0208 15.112 13.0208 15.1245C13.0208 15.1349 12.9896 15.1453 12.95 15.1453C12.9104 15.1453 12.8708 15.1536 12.8646 15.1661C12.8583 15.1765 12.825 15.187 12.7917 15.187C12.7583 15.187 12.725 15.1953 12.7188 15.2078C12.7125 15.2182 12.6604 15.2286 12.6042 15.2286C12.5479 15.2286 12.4958 15.237 12.4896 15.2495C12.4813 15.262 12.2958 15.2703 12 15.2703C11.7042 15.2703 11.5188 15.262 11.5104 15.2495C11.5042 15.237 11.4563 15.2286 11.4063 15.2286C11.3563 15.2286 11.3083 15.2182 11.3021 15.2078C11.2958 15.1953 11.2583 15.187 11.2188 15.187C11.1792 15.187 11.1417 15.1765 11.1354 15.1661C11.1292 15.1536 11.0896 15.1453 11.05 15.1453C11.0104 15.1453 10.9792 15.1349 10.9792 15.1245C10.9792 15.112 10.9563 15.1036 10.9292 15.1036C10.9 15.1036 10.8708 15.0932 10.8646 15.0828C10.8583 15.0703 10.8333 15.062 10.8104 15.062C10.7896 15.062 10.7708 15.0515 10.7708 15.0411C10.7708 15.0286 10.7563 15.0203 10.7396 15.0203C10.7229 15.0203 10.6917 15.012 10.6708 15.0016C10.6521 14.9911 10.5938 14.962 10.5417 14.937C10.4896 14.9099 10.4271 14.8786 10.4021 14.8661C10.375 14.8536 10.3542 14.837 10.3542 14.8266C10.3542 14.8182 10.3396 14.812 10.3229 14.812C10.3042 14.812 10.2708 14.7932 10.2458 14.7703C10.2208 14.7474 10.1875 14.7286 10.1729 14.7286C10.1583 14.7286 10.1458 14.7203 10.1458 14.712C10.1458 14.7016 10.1208 14.6807 10.0896 14.6641C10.0563 14.6474 10.0083 14.612 9.97917 14.5828C9.95 14.5536 9.89375 14.5057 9.85417 14.4786C9.76042 14.412 9.5875 14.239 9.52083 14.1453C9.49375 14.1057 9.44375 14.0474 9.4125 14.0161C9.38125 13.987 9.35417 13.9495 9.35417 13.937C9.35417 13.9224 9.3375 13.8953 9.31667 13.8765C9.29792 13.8578 9.26875 13.8182 9.25208 13.7849C9.23542 13.7536 9.21458 13.7286 9.20417 13.7286C9.19583 13.7286 9.1875 13.7099 9.1875 13.687C9.1875 13.6641 9.18125 13.6453 9.17292 13.6453C9.1625 13.6453 9.14583 13.6245 9.13333 13.5974C9.12083 13.5724 9.08958 13.5099 9.0625 13.4578C9.0375 13.4057 9.00833 13.3474 8.99792 13.3286C8.9875 13.3078 8.97917 13.2765 8.97917 13.2599C8.97917 13.2432 8.97083 13.2286 8.95833 13.2286C8.94792 13.2286 8.9375 13.2099 8.9375 13.189C8.9375 13.1661 8.92917 13.1411 8.91667 13.1349C8.90625 13.1286 8.89583 13.0995 8.89583 13.0703C8.89583 13.0432 8.8875 13.0203 8.875 13.0203C8.86458 13.0203 8.85417 12.9932 8.85417 12.9599C8.85417 12.9245 8.84583 12.8911 8.83333 12.8849C8.82292 12.8786 8.8125 12.8349 8.8125 12.7911C8.8125 12.7474 8.80417 12.7036 8.79167 12.6974C8.78125 12.6911 8.77083 12.6432 8.77083 12.5932C8.77083 12.5432 8.7625 12.4953 8.75 12.489C8.7375 12.4807 8.72917 12.2911 8.72917 11.989C8.72917 11.687 8.7375 11.4974 8.75 11.489C8.7625 11.4828 8.77083 11.4349 8.77083 11.3849C8.77083 11.3349 8.78125 11.287 8.79167 11.2807C8.80417 11.2745 8.8125 11.2411 8.8125 11.2078C8.8125 11.1745 8.82292 11.1411 8.83333 11.1349C8.84583 11.1286 8.85417 11.089 8.85417 11.0495C8.85417 11.0099 8.86458 10.9786 8.875 10.9786C8.8875 10.9786 8.89583 10.9557 8.89583 10.9286C8.89583 10.8995 8.90625 10.8703 8.91667 10.864C8.92917 10.8578 8.9375 10.8328 8.9375 10.8099C8.9375 10.7891 8.94792 10.7703 8.95833 10.7703C8.97083 10.7703 8.97917 10.7557 8.97917 10.739C8.97917 10.7224 8.9875 10.6911 8.99792 10.6703C9.00833 10.6515 9.0375 10.5932 9.0625 10.5411C9.08958 10.489 9.12083 10.4265 9.13333 10.4015C9.14583 10.3745 9.1625 10.3536 9.17292 10.3536C9.18125 10.3536 9.1875 10.339 9.1875 10.3224C9.1875 10.3036 9.20625 10.2703 9.22917 10.2453C9.25208 10.2203 9.27083 10.187 9.27083 10.1724C9.27083 10.1578 9.27917 10.1453 9.2875 10.1453C9.29792 10.1453 9.31875 10.1203 9.33542 10.087C9.35208 10.0557 9.3875 10.0078 9.41667 9.97863C9.44583 9.94947 9.49375 9.89322 9.52083 9.85363C9.58333 9.76405 9.825 9.5203 9.85208 9.5203C9.8625 9.5203 9.90833 9.4828 9.95625 9.43697C10.0021 9.39113 10.0521 9.35363 10.0646 9.35363C10.0792 9.35363 10.1042 9.33697 10.1229 9.31613C10.1417 9.29738 10.1813 9.26822 10.2146 9.25155C10.2458 9.23488 10.2708 9.21405 10.2708 9.20363C10.2708 9.1953 10.2896 9.18697 10.3125 9.18697C10.3354 9.18697 10.3542 9.18072 10.3542 9.1703C10.3542 9.16197 10.375 9.1453 10.4021 9.1328C10.4271 9.1203 10.4896 9.08905 10.5417 9.06197C10.5938 9.03697 10.6521 9.0078 10.6708 8.99738C10.6917 8.98697 10.7229 8.97863 10.7396 8.97863C10.7563 8.97863 10.7708 8.96822 10.7708 8.9578C10.7708 8.9453 10.7896 8.93697 10.8104 8.93697C10.8333 8.93697 10.8583 8.92655 10.8646 8.91613C10.8708 8.90363 10.9 8.8953 10.9292 8.8953C10.9563 8.8953 10.9792 8.88488 10.9792 8.87447C10.9792 8.86197 11.0104 8.85363 11.05 8.85363C11.0896 8.85363 11.1292 8.84322 11.1354 8.8328C11.1417 8.8203 11.175 8.81197 11.2104 8.81197C11.2438 8.81197 11.2708 8.80155 11.2708 8.79113C11.2708 8.77863 11.3167 8.7703 11.3729 8.7703C11.4313 8.7703 11.4833 8.75988 11.4896 8.74947C11.4979 8.73697 11.6042 8.72863 11.7396 8.72863C11.8875 8.72863 11.9813 8.7203 11.9917 8.70572C12 8.68905 12.0104 8.68905 12.0271 8.70572C12.0417 8.7203 12.1396 8.72863 12.2729 8.72863Z" fill="black"/>
</svg>
